inDegrees=no
num_controls=7
num_derivatives=13
num_iterations=98
num_multipliers=7
num_parameters=0
num_slacks=7
num_states=26
objective=0.544117
objective_accelerations=0.061332
objective_balance=0.003249
objective_effort=0.047396
objective_height=0.422376
objective_ligament=0.009763
solver_duration=1152.466296
status=Solve_Succeeded
success=true
DataType=double
version=3
OpenSimVersion=4.5
endheader
time	/jointset/ground_pelvis/pelvis_tilt/value	/jointset/ground_pelvis/pelvis_tx/value	/jointset/ground_pelvis/pelvis_ty/value	/jointset/hip_r/hip_flexion_r/value	/jointset/hip_r/hip_adduction_r/value	/jointset/hip_r/hip_rotation_r/value	/jointset/back/lumbar_extension/value	/jointset/patellofemoral_r/patellar_flexion_r/value	/jointset/knee_r/knee_flexion_r/value	/jointset/knee_r/knee_adduction_r/value	/jointset/knee_r/knee_rotation_r/value	/jointset/ankle_r/ankle_angle_r/value	/jointset/subtalar_r/subtalar_angle_r/value	/jointset/ground_pelvis/pelvis_tilt/speed	/jointset/ground_pelvis/pelvis_tx/speed	/jointset/ground_pelvis/pelvis_ty/speed	/jointset/hip_r/hip_flexion_r/speed	/jointset/hip_r/hip_adduction_r/speed	/jointset/hip_r/hip_rotation_r/speed	/jointset/back/lumbar_extension/speed	/jointset/patellofemoral_r/patellar_flexion_r/speed	/jointset/knee_r/knee_flexion_r/speed	/jointset/knee_r/knee_adduction_r/speed	/jointset/knee_r/knee_rotation_r/speed	/jointset/ankle_r/ankle_angle_r/speed	/jointset/subtalar_r/subtalar_angle_r/speed	/forceset/tau_hip_flexion_r	/forceset/tau_hip_adduction_r	/forceset/tau_hip_rotation_r	/forceset/tau_knee_flexion_r	/forceset/tau_ankle_angle_r	/forceset/tau_subtalar_angle_r	/forceset/tau_lumbar_extension	lambda_cid13_p0	lambda_cid14_p0	lambda_cid14_p1	lambda_cid14_p2	lambda_cid14_p3	lambda_cid14_p4	lambda_cid14_p5	/jointset/ground_pelvis/pelvis_tilt/accel	/jointset/ground_pelvis/pelvis_tx/accel	/jointset/ground_pelvis/pelvis_ty/accel	/jointset/hip_r/hip_flexion_r/accel	/jointset/hip_r/hip_adduction_r/accel	/jointset/hip_r/hip_rotation_r/accel	/jointset/back/lumbar_extension/accel	/jointset/patellofemoral_r/patellar_flexion_r/accel	/jointset/knee_r/knee_flexion_r/accel	/jointset/knee_r/knee_adduction_r/accel	/jointset/knee_r/knee_rotation_r/accel	/jointset/ankle_r/ankle_angle_r/accel	/jointset/subtalar_r/subtalar_angle_r/accel	gamma_cid13_p0	gamma_cid14_p0	gamma_cid14_p1	gamma_cid14_p2	gamma_cid14_p3	gamma_cid14_p4	gamma_cid14_p5
1	-0.3343411427192083	-0.01668937411413074	0.6145183773459507	1.611439907928631	-0.2446922169539429	0.07046496693938602	-0.4363222181231864	1.513046168200912	1.51304616820067	0.02915018194424083	0.1744918592070972	0.43629056440087	0.0861819798240429	-0.003151924054937199	0.001662019353674258	0.01890457769623599	-0.04548322483767782	-0.0009996245322625124	-0.01610852842103604	-0.0005728232069251573	-0.05673623997944616	-0.05673623997944021	-3.89737932296897e-05	-0.0001651167263015434	-0.01059836018972234	-0.005149662684820437	-0.3137646490921001	0.01551492539933412	0.01759762596234126	-0.535338427242901	0.01529192710096584	-0.006230324310164678	0.3216480486034486	-0.04258535122941914	-46.39846025377257	-12.59398843658662	4.482848760228872	19.88860085767912	-822.8253242645511	56.15608949683438	1.287318130355718	0.0236816489419366	2.117309181713112	-6.22443242552637	-0.1136915747501801	-1.507910018767277	-0.02304511089646068	-5.948038389554158	-5.948038389553949	0.1960771119124452	-0.007498748027357269	-1.287647193812355	-0.6226372008725698	1.118392151407635e-09	-1.643156462160533e-09	1.308362097606891e-08	1.060798720000345e-08	2.869021372653261e-09	-3.468978689709093e-09	1.62953142797133e-08
1.01	-0.3343090019056407	-0.01667146164476243	0.614813119742324	1.610674716404899	-0.2447076828063239	0.07022941111950458	-0.4363276048986881	1.512181710508039	1.512181710507828	0.02916013249559901	0.1744892595127382	0.43612041356576	0.08609978419453435	0.009571025102547141	0.001934245344987004	0.04003877325039805	-0.1075495460242197	-0.002090236995631693	-0.03099326230214975	-0.0004248874428425837	-0.1161473994470365	-0.1161473994470304	0.00203139726925627	-0.0003575799107463489	-0.02341851352297819	-0.01127738402715921	-0.3142216441614223	0.01559801706811682	0.01761278496312171	-0.5348225707863447	0.01511429087178015	-0.006217658206321398	0.3221363895169728	-0.04259072322594901	-46.44958696557106	-12.59389356106344	4.47878336566392	19.73636557347048	-822.9067781556959	56.08686414592635	1.263424328353559	0.03105873328930399	2.110704305083307	-6.19690173471181	-0.1062458786206888	-1.477349940566935	0.04565958980934575	-5.936470228435659	-5.936470228435675	0.2128661619891884	-0.02552751089615311	-1.277206944810265	-0.6060203867336144	1.869323435500707e-09	-1.274475227402951e-09	2.971512566465809e-08	2.139180167555593e-08	2.03858395007745e-10	-5.914969156037389e-09	3.593533954352199e-08
1.02	-0.3341499033965167	-0.01665041378366806	0.6153190500068023	1.6092890277154	-0.2447339547426366	0.06984528898724313	-0.4363291229826688	1.510723378119875	1.510723378119704	0.02919085656920205	0.1744846537051006	0.4358224596889687	0.08595667519443811	0.02223961505638138	0.002289097698887728	0.06114215131715176	-0.1695826579905073	-0.003160841318603174	-0.04582179089461763	0.0002009151111822498	-0.1755111790375928	-0.1755111790375856	0.004115730674653676	-0.0005663393849117571	-0.03615896852535736	-0.01733233680226558	-0.3146786392307567	0.01568110873685747	0.01762794396435656	-0.534306714329785	0.01493665464257918	-0.006204992102565246	0.322624730430485	-0.0426041067265637	-46.50941917266363	-12.59276169381852	4.471627058513603	19.61297736626637	-823.1256665601056	56.01875338280715	1.27644628962575	0.04020692145950629	2.111145684231428	-6.217790581475509	-0.1096899466706755	-1.496668961038134	0.07252824709239004	-5.938562414147304	-5.938562414146938	0.1988695804947525	-0.01075800597139622	-1.27170752763707	-0.6080834874261639	2.759276299199362e-09	-4.526764998552096e-10	4.757567249961856e-08	3.268254486131665e-08	-3.456102106306686e-09	-8.316259522140682e-09	5.846115452149332e-08
1.03	-0.3338646671630719	-0.01662534570232539	0.6160357426466099	1.607283620031297	-0.2447707956809453	0.06931322394267669	-0.4363213622673873	1.508671774050497	1.508671774050495	0.02924247006146781	0.174477865066984	0.4353974731015726	0.08575345230247125	0.0347695982304551	0.002744241783582169	0.08217938323840016	-0.2314475654524329	-0.004200527083280285	-0.0605767536307801	0.001496012298107236	-0.2347888418374156	-0.2347888418374118	0.00620623381432304	-0.0007949502797400384	-0.04882762844150019	-0.02329333062020249	-0.3150825823813922	0.01573238175634809	0.01766461655228768	-0.5333938977938256	0.01480206685262706	-0.006161349579065664	0.323148467155922	-0.04262596301146079	-46.53080782140362	-12.56078400314854	4.447375015282446	19.38642386173881	-823.0451198128052	55.95946240014406	1.235569623304361	0.05112518649257381	2.097460777164418	-6.163143679449584	-0.1000773397249976	-1.462742012067605	0.1797181053185493	-5.919249998257174	-5.919249998257851	0.214034971614238	-0.0294336631049673	-1.262839938518214	-0.5872549433492585	3.650647750445014e-09	3.737458755781476e-10	6.544876058097058e-08	4.397846078901828e-08	-7.126213602760602e-09	-1.071709376477229e-08	8.101641633328265e-08
